<?xml version="1.0" ?><svg enable-background="new 0 0 1000 1000" id="Capa_3" version="1.1" viewBox="0 0 1000 1000" xml:space="preserve" xmlns="http://www.w3.org/2000/svg" xmlns:xlink="http://www.w3.org/1999/xlink"><g><polyline fill="none" points="102.5,887.3 848.2,141.6 883.4,72.1    812.5,105.9 66,852.4  " stroke="#000000" stroke-miterlimit="10" stroke-width="15"/><circle cx="63.8" cy="890.4" fill="none" r="37.5" stroke="#000000" stroke-miterlimit="10" stroke-width="15"/><rect height="175" transform="matrix(0.7071 0.7071 -0.7071 0.7071 596.9221 91.7245)" width="48.9" x="163.3" y="678.9"/><path d="M728.3,190.2c-11.2-18.5-19.1-38.4-23.7-59   c-12,4.4-23.6,10-34.8,16.8c-77-46.9-178.8-37.1-245.4,29.5c-23.5,23.5-39.9,51.3-49.2,80.9c61.7-54.8,149.1-64.8,220.3-30.2   c19.4,9.5,37.7,22.3,53.8,38.4" fill="none" stroke="#000000" stroke-miterlimit="10" stroke-width="15"/><path d="M897.5,442.6c36.3-36.3,54.5-85.7,50.9-136   c-31.2,6.9-63.8,7-95.4,0.3" fill="none" stroke="#000000" stroke-miterlimit="10" stroke-width="15"/><path d="M685.4,301.2c31.7,31.7,50.6,71.5,56.5,112.7   c4.8,33.6,1.1,68.2-11.2,100.3c64.4,14.1,134.4-3.9,184.4-53.9c50.4-50.4,68.3-121,53.6-185.7c-70.9,26.1-153.7,10.7-210.6-46.3" fill="none" stroke="#000000" stroke-miterlimit="10" stroke-width="15"/><line fill="none" stroke="#000000" stroke-miterlimit="10" stroke-width="15" x1="707.2" x2="742.6" y1="213" y2="248.3"/><line fill="none" stroke="#000000" stroke-miterlimit="10" stroke-width="15" x1="689.5" x2="725.6" y1="230.7" y2="266.7"/><line fill="none" stroke="#000000" stroke-miterlimit="10" stroke-width="15" x1="707.2" x2="671.9" y1="283.7" y2="248.3"/></g></svg>