<?xml version="1.0" ?><svg enable-background="new 0 0 1000 1000" id="Capa_3" version="1.1" viewBox="0 0 1000 1000" xml:space="preserve" xmlns="http://www.w3.org/2000/svg" xmlns:xlink="http://www.w3.org/1999/xlink"><g><g><polyline fill="none" points="127.7,838.7 562.3,404.1 628.2,408.9     162.9,874.1   " stroke="#000000" stroke-miterlimit="10" stroke-width="15"/><circle cx="123.4" cy="877.5" fill="none" r="37.5" stroke="#000000" stroke-miterlimit="10" stroke-width="15"/><rect height="175" transform="matrix(0.7071 0.7071 -0.7071 0.7071 544.2628 -102.0725)" width="50.7" x="370" y="518.4"/></g><g><polygon fill="none" points="551.5,356.1 711,387.9 738.6,346.8     600.7,319.3   " stroke="#000000" stroke-miterlimit="10" stroke-width="15"/><polygon fill="none" points="600.7,319.3 738.6,346.8 766.1,305.6     650,282.5   " stroke="#000000" stroke-miterlimit="10" stroke-width="15"/><polygon fill="none" points="511.5,386.1 688.9,420.7 711,387.9     551.5,356.1   " stroke="#000000" stroke-miterlimit="10" stroke-width="15"/><polygon fill="none" points="650,282.5 766.1,305.6 793.7,264.5     699.2,245.7   " stroke="#000000" stroke-miterlimit="10" stroke-width="15"/><line fill="none" stroke="#000000" stroke-miterlimit="10" stroke-width="15" x1="811.7" x2="782.3" y1="192.8" y2="236.7"/><polygon fill="none" points="748.5,208.8 699.2,245.7 793.7,264.5     821.3,223.3 848.9,182.2 914.2,85 797.8,172   " stroke="#000000" stroke-miterlimit="10" stroke-width="15"/></g></g></svg>